<svg width="985" height="726" viewBox="0 0 985 726" fill="none" xmlns="http://www.w3.org/2000/svg">
<path d="M1 39L32 664.5L54 695.5L288.5 702.5V635.5H266.5L211 627L111 609L101 247L341 238L351 478L311 484.5L266.5 512.5L229.5 562.5L211 627L266.5 635.5L276.5 601L306.5 570L351 542.5H408.5L416.5 478L408.5 315.5V223.5V179L101 193.5V39H51H1Z" fill="#D9D9D9"/>
<path d="M715.5 649H697.5V713.5L964 724.5L984 713.5L943 1L856.5 12.5L868.5 154.5L565.5 169V215.5V309L579.5 484.5V549H627.5L675.5 562.5L704 609L715.5 649H772L759.5 601L724 542.5L697.5 512.5L647.5 492.5L635.5 280L875.5 274.5L906.5 649H772H715.5Z" fill="#D9D9D9"/>
<path d="M565.5 215.5H525.5V193.5H458.5V223.5H408.5V315.5L565.5 309V215.5Z" fill="#D9D9D9"/>
<path d="M408.5 542.5V575.5H439.5V595.5L548.5 601V585.5H579.5V549V484.5L416.5 478L408.5 542.5Z" fill="#D9D9D9"/>
<path d="M266.5 635.5H288.5V702.5L54 695.5L32 664.5L1 39H51H101V193.5L408.5 179V223.5M266.5 635.5L211 627M266.5 635.5L276.5 601L306.5 570L351 542.5H408.5M408.5 542.5V575.5H439.5V595.5L548.5 601V585.5H579.5V549M408.5 542.5L416.5 478M579.5 549V484.5M579.5 549H627.5L675.5 562.5L704 609L715.5 649M715.5 649H697.5V713.5L964 724.5L984 713.5L943 1L856.5 12.5L868.5 154.5L565.5 169V215.5M715.5 649H772M565.5 215.5H525.5V193.5H458.5V223.5H408.5M565.5 215.5V309M408.5 223.5V315.5M579.5 484.5L416.5 478M579.5 484.5L565.5 309M416.5 478L408.5 315.5M408.5 315.5L565.5 309M211 627L111 609L101 247L341 238L351 478L311 484.5L266.5 512.5L229.5 562.5L211 627ZM772 649H906.5L875.5 274.5L635.5 280L647.5 492.5L697.5 512.5L724 542.5L759.5 601L772 649Z" stroke="#D3D1E2"/>
</svg>
